<?xml version="1.0" standalone="no"?><svg xmlns="http://www.w3.org/2000/svg" viewBox="0 0 1440 320"><path fill="#000000" fill-opacity="1" d="M0,96L34.3,80C68.6,64,137,32,206,58.7C274.3,85,343,171,411,170.7C480,171,549,85,617,80C685.7,75,754,149,823,170.7C891.4,192,960,160,1029,170.7C1097.1,181,1166,235,1234,213.3C1302.9,192,1371,96,1406,48L1440,0L1440,320L1405.7,320C1371.4,320,1303,320,1234,320C1165.7,320,1097,320,1029,320C960,320,891,320,823,320C754.3,320,686,320,617,320C548.6,320,480,320,411,320C342.9,320,274,320,206,320C137.1,320,69,320,34,320L0,320Z"></path></svg>