<svg width="87" height="86" viewBox="0 0 87 86" fill="none" xmlns="http://www.w3.org/2000/svg">
<ellipse cx="43.5" cy="43" rx="43.5" ry="43" fill="white"/>
<g clip-path="url(#clip0_4_648)">
<path d="M59.1797 20.7636L62.5821 20.4886L62.8572 23.8909C63.0456 26.2198 62.7735 28.563 62.0563 30.7867C61.3392 33.0104 60.1911 35.0711 58.6775 36.8511L41.0802 57.5413L29.4619 47.6611L47.0593 26.9709C48.573 25.1911 50.4225 23.7268 52.5021 22.6618C54.5818 21.5967 56.8508 20.9517 59.1797 20.7636ZM57.2844 46.3348L62.5468 40.144C64.4933 37.8557 65.9701 35.2064 66.8927 32.3475C67.8153 29.4885 68.1657 26.4757 67.924 23.4813L67.2393 15.0121L58.7701 15.6968C55.7759 15.9389 52.8587 16.7683 50.185 18.1378C47.5113 19.5072 45.1335 21.3899 43.1874 23.6783L37.9223 29.8669L23.446 29.2344L13.5845 40.8307L50.3726 72.1178L60.2341 60.5215L57.2846 46.3374L57.2844 46.3348ZM53.1114 51.2392L54.7507 59.1212L49.7931 64.9508L44.952 60.8339L53.1114 51.2392ZM33.752 34.7735L25.5901 44.3684L20.7489 40.2515L25.709 34.4216L33.752 34.7735ZM26.7485 58.6973L18.5171 68.3795L14.6453 65.0868L22.8769 55.4073L26.7485 58.6973ZM34.4951 65.2875L26.261 74.9672L22.3892 71.6746L30.6205 61.9925L34.4951 65.2875Z" fill="black"/>
</g>
<defs>
<clipPath id="clip0_4_648">
<rect width="61" height="61" fill="white" transform="translate(9 16.9155) rotate(-4.62199)"/>
</clipPath>
</defs>
</svg>
