<svg width="99" height="99" viewBox="0 0 99 99" fill="none" xmlns="http://www.w3.org/2000/svg">
<path d="M57.6236 65.1222L32.7186 50.4676L34.2278 47.6962L31.6753 46.3526L38.3568 35.1919L40.7852 36.7438L42.264 34.2013C50.5659 39.1451 67.1468 49.0473 67.0555 49.1058C60.53 53.379 58.0486 61.5639 57.6236 65.1222Z" fill="black"/>
<rect x="46.042" y="34.4458" width="35.8049" height="21.1913" transform="rotate(-59.2262 46.042 34.4458)" fill="black"/>
<rect x="16.1302" y="83.6233" width="35.8049" height="21.1913" transform="rotate(-59.2262 16.1302 83.6233)" fill="black"/>
<path d="M60.8436 76.4269C61.7174 71.2655 66.405 58.0563 78.1647 46.5105C78.3726 46.4578 51.5924 49.7083 60.8436 76.4269Z" fill="black"/>
<path d="M67.4449 63.0304C67.9081 62.2051 68.4415 62.4828 68.6503 62.7248C69.9422 63.4 72.5196 64.7254 72.4943 64.6257C65.5347 76.609 62.3335 77.2436 62.1567 77.2442C60.8787 74.4716 67.0837 63.874 67.4449 63.0304Z" fill="black"/>
<path d="M74.8038 61.1725C73.8097 63.0093 73.7761 62.2952 73.5673 62.0533C72.2754 61.3781 69.7291 59.4774 69.7544 59.5772C76.714 47.5939 79.9152 46.9593 80.092 46.9587C81.37 49.7313 75.165 60.3289 74.8038 61.1725Z" fill="black"/>
<rect x="72.5703" y="65.4493" width="3.94504" height="6.73229" rx="1.97252" transform="rotate(-59.2262 72.5703 65.4493)" fill="black"/>
</svg>
