<svg width="150" height="91" viewBox="0 0 150 91" fill="none" xmlns="http://www.w3.org/2000/svg">
<path fill-rule="evenodd" clip-rule="evenodd" d="M36.9252 50.497C38.2177 56.3622 40.8312 61.8553 44.5668 66.5582L75.4841 42L114.345 35.0129C113.282 29.1017 110.885 23.5108 107.336 18.6659C103.786 13.8209 99.1782 9.84952 93.8625 7.05395C88.5468 4.25839 82.6634 2.71233 76.6601 2.53345C76.2936 2.52253 75.9273 2.51672 75.5612 2.51601C97.3322 2.55756 114.968 20.2192 114.968 42C114.968 63.8064 97.2906 81.484 75.4842 81.484C53.7917 81.484 36.1851 63.9907 36.0016 42.3416C36.0253 45.076 36.333 47.8094 36.9252 50.497ZM75.3914 2.51604C75.448 2.51591 75.5046 2.51589 75.5612 2.51601C75.5355 2.51596 75.5098 2.51593 75.4842 2.51593C75.4533 2.51593 75.4223 2.51597 75.3914 2.51604ZM75.3914 2.51604C69.8184 2.52911 64.3061 3.72197 59.2191 6.02169C53.7464 8.4958 48.9102 12.1858 45.0786 16.8108C41.2471 21.4359 38.5211 26.874 37.1082 32.7115C36.3428 35.874 35.9736 39.1086 36.0016 42.3416C36.0006 42.2278 36.0002 42.114 36.0002 42C36.0002 20.2244 53.6277 2.56607 75.3914 2.51604Z" fill="#FFC38B"/>
<path d="M142.113 16.0653C142.25 16.3621 142.31 16.9233 141.858 17.9421C141.409 18.9521 140.541 20.2031 139.205 21.675C136.54 24.609 132.261 28.1531 126.638 32.0755C115.414 39.9062 99.0814 49.0757 80.3069 57.7066C61.5324 66.3374 43.9392 72.7638 30.6874 76.1853C24.0494 77.8992 18.5733 78.8398 14.6116 78.9519C12.6242 79.0081 11.1098 78.8522 10.051 78.5352C8.98296 78.2154 8.5967 77.8039 8.46026 77.507C8.32875 77.221 8.2623 76.5987 8.75472 75.425C9.23299 74.285 10.1421 72.8659 11.5134 71.2005C14.2477 67.8799 18.6145 63.8249 24.3093 59.3962C35.6834 50.5509 52.154 40.3699 70.8899 31.7568C89.6255 23.1439 107.029 17.7522 120.093 15.3556C126.635 14.1554 132.023 13.7187 135.918 13.9758C137.87 14.1046 139.37 14.4033 140.431 14.8198C141.506 15.2418 141.95 15.7106 142.113 16.0653Z" stroke="#444444" stroke-width="3"/>
<path d="M44.5668 66.5582C40.8312 61.8553 38.2177 56.3622 36.9252 50.4969C35.6327 44.6317 35.6953 38.5489 37.1082 32.7114C38.5211 26.874 41.247 21.4358 45.0786 16.8108C48.9102 12.1858 53.7463 8.49577 59.219 6.02166C64.6918 3.54755 70.6568 2.35454 76.6601 2.53342C82.6634 2.7123 88.5468 4.25835 93.8625 7.05392C99.1782 9.84949 103.786 13.8209 107.335 18.6658C110.885 23.5108 113.282 29.1017 114.345 35.0128L75.4841 41.9999L44.5668 66.5582Z" fill="#FFC38B"/>
</svg>
