<svg width="955" height="188" viewBox="0 0 955 188" fill="none" xmlns="http://www.w3.org/2000/svg">
<path d="M66.8607 85V36.3088C66.8607 34.1857 67.3915 32.2582 68.4531 30.5262C69.5146 28.7383 70.9114 27.3136 72.6433 26.2521C74.4312 25.1906 76.3867 24.6598 78.5098 24.6598H115.468C117.591 24.6598 119.547 25.1906 121.335 26.2521C123.122 27.3136 124.547 28.7383 125.609 30.5262C126.67 32.2582 127.201 34.1857 127.201 36.3088V85H116.055V64.719H77.9231V85H66.8607ZM77.9231 53.6566H116.055V36.8116C116.055 36.5323 115.943 36.3088 115.72 36.1412C115.496 35.9177 115.245 35.806 114.965 35.806H78.9288C78.6494 35.806 78.398 35.9177 78.1745 36.1412C78.0069 36.3088 77.9231 36.5323 77.9231 36.8116V53.6566ZM136.414 85V47.9578C136.414 45.8347 136.945 43.9072 138.007 42.1752C139.068 40.4432 140.465 39.0465 142.197 37.9849C143.985 36.9234 145.912 36.3926 147.98 36.3926H174.965V47.3712H148.399C148.119 47.3712 147.868 47.4829 147.644 47.7064C147.477 47.874 147.393 48.0975 147.393 48.3768V85H136.414ZM180.94 85V20.4695H191.919V36.3926H218.737C220.86 36.3926 222.787 36.9234 224.519 37.9849C226.307 39.0465 227.704 40.4432 228.709 42.1752C229.771 43.9072 230.302 45.8347 230.302 47.9578V73.4348C230.302 75.5579 229.771 77.4854 228.709 79.2174C227.704 80.9494 226.307 82.3461 224.519 83.4077C222.787 84.4692 220.86 85 218.737 85H180.94ZM192.924 74.0214H218.318C218.597 74.0214 218.82 73.9376 218.988 73.77C219.211 73.5465 219.323 73.2951 219.323 73.0158V48.3768C219.323 48.0975 219.211 47.874 218.988 47.7064C218.82 47.4829 218.597 47.3712 218.318 47.3712H192.924C192.645 47.3712 192.394 47.4829 192.17 47.7064C192.002 47.874 191.919 48.0975 191.919 48.3768V73.0158C191.919 73.2951 192.002 73.5465 192.17 73.77C192.394 73.9376 192.645 74.0214 192.924 74.0214ZM248.152 85C246.029 85 244.101 84.4692 242.369 83.4077C240.637 82.3461 239.24 80.9494 238.179 79.2174C237.117 77.4854 236.587 75.5579 236.587 73.4348V47.9578C236.587 45.8347 237.117 43.9072 238.179 42.1752C239.24 40.4432 240.637 39.0465 242.369 37.9849C244.101 36.9234 246.029 36.3926 248.152 36.3926H274.383C276.506 36.3926 278.434 36.9234 280.166 37.9849C281.953 39.0465 283.35 40.4432 284.356 42.1752C285.417 43.9072 285.948 45.8347 285.948 47.9578V73.4348C285.948 75.5579 285.417 77.4854 284.356 79.2174C283.35 80.9494 281.981 82.3461 280.249 83.4077C278.517 84.4692 276.562 85 274.383 85H248.152ZM248.571 74.0214H273.964C274.243 74.0214 274.467 73.9376 274.634 73.77C274.858 73.5465 274.97 73.2951 274.97 73.0158V48.3768C274.97 48.0975 274.858 47.874 274.634 47.7064C274.467 47.4829 274.243 47.3712 273.964 47.3712H248.571C248.291 47.3712 248.04 47.4829 247.817 47.7064C247.649 47.874 247.565 48.0975 247.565 48.3768V73.0158C247.565 73.2951 247.649 73.5465 247.817 73.77C248.04 73.9376 248.291 74.0214 248.571 74.0214ZM292.896 85V47.9578C292.896 45.8347 293.426 43.9072 294.488 42.1752C295.549 40.4432 296.946 39.0465 298.678 37.9849C300.466 36.9234 302.394 36.3926 304.461 36.3926H331.446V47.3712H304.88C304.6 47.3712 304.349 47.4829 304.126 47.7064C303.958 47.874 303.874 48.0975 303.874 48.3768V85H292.896ZM337.827 85V36.3926H348.805V85H337.827ZM337.827 31.5319V20.4695H348.805V31.5319H337.827ZM368.054 85C365.931 85 363.975 84.4692 362.187 83.4077C360.455 82.3461 359.059 80.9494 357.997 79.2174C356.991 77.4854 356.488 75.5579 356.488 73.4348V36.3926H367.467V73.0158C367.467 73.2951 367.551 73.5465 367.718 73.77C367.942 73.9376 368.193 74.0214 368.473 74.0214H393.866C394.145 74.0214 394.369 73.9376 394.536 73.77C394.76 73.5465 394.872 73.2951 394.872 73.0158V36.3926H405.85V73.4348C405.85 75.5579 405.319 77.4854 404.258 79.2174C403.252 80.9494 401.883 82.3461 400.151 83.4077C398.419 84.4692 396.464 85 394.285 85H368.054ZM412.797 85V36.3926H473.054C475.233 36.3926 477.188 36.9234 478.92 37.9849C480.652 39.0465 482.021 40.4432 483.027 42.1752C484.088 43.9072 484.619 45.8347 484.619 47.9578V85H473.724V48.3768C473.724 48.0975 473.613 47.874 473.389 47.7064C473.166 47.4829 472.914 47.3712 472.635 47.3712H455.287C455.008 47.3712 454.756 47.4829 454.533 47.7064C454.365 47.874 454.281 48.0975 454.281 48.3768V85H443.219V48.3768C443.219 48.0975 443.107 47.874 442.884 47.7064C442.716 47.4829 442.493 47.3712 442.213 47.3712H424.782C424.502 47.3712 424.251 47.4829 424.027 47.7064C423.86 47.874 423.776 48.0975 423.776 48.3768V85H412.797ZM568.61 85L550.424 63.2943H564.922L580.678 81.8992V85H568.61ZM520.505 85V24.7436H569.112C571.235 24.7436 573.191 25.2744 574.979 26.3359C576.767 27.3974 578.191 28.8221 579.253 30.61C580.314 32.342 580.845 34.2695 580.845 36.3926V52.6509C580.845 54.774 580.314 56.7295 579.253 58.5174C578.191 60.3052 576.767 61.7299 574.979 62.7915C573.191 63.7971 571.235 64.3 569.112 64.3L531.567 64.3838V85H520.505ZM532.573 53.1538H568.61C568.889 53.1538 569.14 53.07 569.364 52.9024C569.587 52.7348 569.699 52.5113 569.699 52.2319V36.8116C569.699 36.5323 569.587 36.3088 569.364 36.1412C569.14 35.9177 568.889 35.806 568.61 35.806H532.573C532.294 35.806 532.042 35.9177 531.819 36.1412C531.651 36.3088 531.567 36.5323 531.567 36.8116V52.2319C531.567 52.5113 531.651 52.7348 531.819 52.9024C532.042 53.07 532.294 53.1538 532.573 53.1538ZM600.807 85C598.684 85 596.757 84.4692 595.025 83.4077C593.293 82.3461 591.896 80.9494 590.834 79.2174C589.773 77.4854 589.242 75.5579 589.242 73.4348V47.9578C589.242 45.8347 589.773 43.9072 590.834 42.1752C591.896 40.4432 593.293 39.0465 595.025 37.9849C596.757 36.9234 598.684 36.3926 600.807 36.3926H627.039C629.162 36.3926 631.089 36.9234 632.821 37.9849C634.609 39.0465 636.006 40.4432 637.012 42.1752C638.073 43.9072 638.604 45.8347 638.604 47.9578V66.2275H600.221V73.0158C600.221 73.2951 600.305 73.5465 600.472 73.77C600.696 73.9376 600.947 74.0214 601.226 74.0214H638.604V85H600.807ZM600.221 56.3384H627.625V48.3768C627.625 48.0975 627.514 47.874 627.29 47.7064C627.122 47.4829 626.899 47.3712 626.62 47.3712H601.226C600.947 47.3712 600.696 47.4829 600.472 47.7064C600.305 47.874 600.221 48.0975 600.221 48.3768V56.3384ZM667.723 85L640.989 36.3926H653.644L672.835 71.6749L691.943 36.3926H704.598L677.78 85H667.723ZM710.37 85V36.3926H721.348V85H710.37ZM710.37 31.5319V20.4695H721.348V31.5319H710.37ZM753.575 85L726.841 36.3926H739.496L758.687 71.6749L777.795 36.3926H790.45L763.632 85H753.575ZM804.593 85C802.47 85 800.542 84.4692 798.81 83.4077C797.078 82.3461 795.682 80.9494 794.62 79.2174C793.559 77.4854 793.028 75.5579 793.028 73.4348V47.9578C793.028 45.8347 793.559 43.9072 794.62 42.1752C795.682 40.4432 797.078 39.0465 798.81 37.9849C800.542 36.9234 802.47 36.3926 804.593 36.3926H830.824C832.947 36.3926 834.875 36.9234 836.607 37.9849C838.395 39.0465 839.792 40.4432 840.797 42.1752C841.859 43.9072 842.39 45.8347 842.39 47.9578V66.2275H804.006V73.0158C804.006 73.2951 804.09 73.5465 804.258 73.77C804.481 73.9376 804.733 74.0214 805.012 74.0214H842.39V85H804.593ZM804.006 56.3384H831.411V48.3768C831.411 48.0975 831.299 47.874 831.076 47.7064C830.908 47.4829 830.685 47.3712 830.405 47.3712H805.012C804.733 47.3712 804.481 47.4829 804.258 47.7064C804.09 47.874 804.006 48.0975 804.006 48.3768V56.3384Z" fill="black"/>
<path d="M66.8608 87L66.8607 135.691C66.8607 137.814 67.3915 139.742 68.4531 141.474C69.5146 143.262 70.9114 144.686 72.6433 145.748C74.4312 146.809 76.3867 147.34 78.5098 147.34L115.468 147.34C117.591 147.34 119.547 146.809 121.335 145.748C123.122 144.686 124.547 143.262 125.609 141.474C126.67 139.742 127.201 137.814 127.201 135.691L127.201 87L116.055 87L116.055 107.281L77.9231 107.281L77.9231 87L66.8608 87ZM77.9231 118.343L116.055 118.343L116.055 135.188C116.055 135.468 115.943 135.691 115.72 135.859C115.496 136.082 115.245 136.194 114.965 136.194L78.9288 136.194C78.6494 136.194 78.398 136.082 78.1745 135.859C78.0069 135.691 77.9231 135.468 77.9231 135.188L77.9231 118.343ZM136.414 87L136.414 124.042C136.414 126.165 136.945 128.093 138.007 129.825C139.068 131.557 140.465 132.954 142.197 134.015C143.985 135.077 145.912 135.607 147.98 135.607L174.965 135.607L174.965 124.629L148.399 124.629C148.119 124.629 147.868 124.517 147.644 124.294C147.477 124.126 147.393 123.903 147.393 123.623L147.393 87L136.414 87ZM180.94 87L180.94 151.531L191.919 151.531L191.919 135.607L218.737 135.607C220.86 135.607 222.787 135.077 224.519 134.015C226.307 132.954 227.704 131.557 228.709 129.825C229.771 128.093 230.302 126.165 230.302 124.042L230.302 98.5652C230.302 96.4422 229.771 94.5146 228.709 92.7826C227.704 91.0506 226.307 89.6539 224.519 88.5923C222.787 87.5308 220.86 87 218.737 87L180.94 87ZM192.924 97.9786L218.318 97.9786C218.597 97.9786 218.82 98.0624 218.988 98.23C219.211 98.4535 219.323 98.7049 219.323 98.9843L219.323 123.623C219.323 123.903 219.211 124.126 218.988 124.294C218.82 124.517 218.597 124.629 218.318 124.629L192.924 124.629C192.645 124.629 192.394 124.517 192.17 124.294C192.003 124.126 191.919 123.903 191.919 123.623L191.919 98.9843C191.919 98.7049 192.003 98.4535 192.17 98.23C192.394 98.0624 192.645 97.9786 192.924 97.9786ZM248.152 87C246.029 87 244.101 87.5308 242.369 88.5923C240.637 89.6539 239.24 91.0506 238.179 92.7826C237.117 94.5146 236.587 96.4422 236.587 98.5652L236.587 124.042C236.587 126.165 237.117 128.093 238.179 129.825C239.24 131.557 240.637 132.954 242.369 134.015C244.101 135.077 246.029 135.607 248.152 135.607L274.383 135.607C276.506 135.607 278.434 135.077 280.166 134.015C281.953 132.954 283.35 131.557 284.356 129.825C285.417 128.093 285.948 126.165 285.948 124.042L285.948 98.5652C285.948 96.4422 285.417 94.5146 284.356 92.7826C283.35 91.0507 281.981 89.6539 280.249 88.5923C278.517 87.5308 276.562 87 274.383 87L248.152 87ZM248.571 97.9786L273.964 97.9786C274.243 97.9786 274.467 98.0624 274.634 98.23C274.858 98.4535 274.97 98.7049 274.97 98.9843L274.97 123.623C274.97 123.903 274.858 124.126 274.634 124.294C274.467 124.517 274.243 124.629 273.964 124.629L248.571 124.629C248.291 124.629 248.04 124.517 247.817 124.294C247.649 124.126 247.565 123.903 247.565 123.623L247.565 98.9843C247.565 98.7049 247.649 98.4535 247.817 98.23C248.04 98.0624 248.291 97.9786 248.571 97.9786ZM292.896 87L292.896 124.042C292.896 126.165 293.426 128.093 294.488 129.825C295.549 131.557 296.946 132.954 298.678 134.015C300.466 135.077 302.394 135.607 304.461 135.607L331.446 135.607L331.446 124.629L304.88 124.629C304.6 124.629 304.349 124.517 304.126 124.294C303.958 124.126 303.874 123.903 303.874 123.623L303.874 87L292.896 87ZM337.827 87L337.827 135.607L348.805 135.607L348.805 87.0001L337.827 87ZM337.827 140.468L337.827 151.531L348.805 151.531L348.805 140.468L337.827 140.468ZM368.054 87.0001C365.931 87.0001 363.975 87.5308 362.187 88.5924C360.455 89.6539 359.059 91.0507 357.997 92.7827C356.991 94.5146 356.489 96.4422 356.489 98.5653L356.488 135.607L367.467 135.607L367.467 98.9843C367.467 98.7049 367.551 98.4535 367.718 98.23C367.942 98.0624 368.193 97.9786 368.473 97.9786L393.866 97.9786C394.145 97.9786 394.369 98.0624 394.536 98.23C394.76 98.4535 394.872 98.7049 394.872 98.9843L394.872 135.607L405.85 135.607L405.85 98.5653C405.85 96.4422 405.319 94.5147 404.258 92.7827C403.252 91.0507 401.883 89.6539 400.151 88.5924C398.419 87.5308 396.464 87.0001 394.285 87.0001L368.054 87.0001ZM412.798 87.0001L412.797 135.607L473.054 135.607C475.233 135.607 477.188 135.077 478.92 134.015C480.652 132.954 482.021 131.557 483.027 129.825C484.088 128.093 484.619 126.165 484.619 124.042L484.619 87.0001L473.724 87.0001L473.724 123.623C473.724 123.903 473.613 124.126 473.389 124.294C473.166 124.517 472.914 124.629 472.635 124.629L455.287 124.629C455.008 124.629 454.756 124.517 454.533 124.294C454.365 124.126 454.281 123.903 454.281 123.623L454.281 87.0001L443.219 87.0001L443.219 123.623C443.219 123.903 443.107 124.126 442.884 124.294C442.716 124.517 442.493 124.629 442.213 124.629L424.782 124.629C424.502 124.629 424.251 124.517 424.027 124.294C423.86 124.126 423.776 123.903 423.776 123.623L423.776 87.0001L412.798 87.0001ZM568.61 87.0001L550.424 108.706L564.922 108.706L580.678 90.1009L580.678 87.0001L568.61 87.0001ZM520.505 87.0001L520.505 147.256L569.112 147.256C571.235 147.256 573.191 146.726 574.979 145.664C576.767 144.603 578.191 143.178 579.253 141.39C580.314 139.658 580.845 137.731 580.845 135.607L580.845 119.349C580.845 117.226 580.314 115.271 579.253 113.483C578.191 111.695 576.767 110.27 574.979 109.209C573.191 108.203 571.235 107.7 569.112 107.7L531.567 107.616L531.567 87.0001L520.505 87.0001ZM532.573 118.846L568.61 118.846C568.889 118.846 569.14 118.93 569.364 119.098C569.587 119.265 569.699 119.489 569.699 119.768L569.699 135.188C569.699 135.468 569.587 135.691 569.364 135.859C569.14 136.082 568.889 136.194 568.61 136.194L532.573 136.194C532.294 136.194 532.042 136.082 531.819 135.859C531.651 135.691 531.567 135.468 531.567 135.188L531.567 119.768C531.567 119.489 531.651 119.265 531.819 119.098C532.042 118.93 532.294 118.846 532.573 118.846ZM600.807 87.0001C598.684 87.0001 596.757 87.5309 595.025 88.5924C593.293 89.6539 591.896 91.0507 590.835 92.7827C589.773 94.5147 589.242 96.4422 589.242 98.5653L589.242 124.042C589.242 126.165 589.773 128.093 590.834 129.825C591.896 131.557 593.293 132.954 595.025 134.015C596.757 135.077 598.684 135.607 600.807 135.607L627.039 135.607C629.162 135.607 631.089 135.077 632.821 134.015C634.609 132.954 636.006 131.557 637.012 129.825C638.073 128.093 638.604 126.165 638.604 124.042L638.604 105.773L600.221 105.773L600.221 98.9843C600.221 98.705 600.305 98.4536 600.472 98.2301C600.696 98.0625 600.947 97.9787 601.226 97.9787L638.604 97.9787L638.604 87.0001L600.807 87.0001ZM600.221 115.662L627.625 115.662L627.625 123.623C627.625 123.903 627.514 124.126 627.29 124.294C627.122 124.517 626.899 124.629 626.62 124.629L601.226 124.629C600.947 124.629 600.696 124.517 600.472 124.294C600.305 124.126 600.221 123.903 600.221 123.623L600.221 115.662ZM667.723 87.0001L640.989 135.607L653.644 135.607L672.835 100.325L691.943 135.608L704.598 135.608L677.78 87.0001L667.723 87.0001ZM710.37 87.0001L710.37 135.608L721.348 135.608L721.348 87.0001L710.37 87.0001ZM710.37 140.468L710.37 151.531L721.348 151.531L721.348 140.468L710.37 140.468ZM753.575 87.0001L726.841 135.608L739.496 135.608L758.687 100.325L777.795 135.608L790.45 135.608L763.632 87.0001L753.575 87.0001ZM804.593 87.0001C802.47 87.0001 800.542 87.5309 798.81 88.5924C797.079 89.654 795.682 91.0507 794.62 92.7827C793.559 94.5147 793.028 96.4423 793.028 98.5653L793.028 124.042C793.028 126.165 793.559 128.093 794.62 129.825C795.682 131.557 797.079 132.954 798.81 134.015C800.542 135.077 802.47 135.608 804.593 135.608L830.824 135.608C832.947 135.608 834.875 135.077 836.607 134.015C838.395 132.954 839.792 131.557 840.797 129.825C841.859 128.093 842.39 126.165 842.39 124.042L842.39 105.773L804.006 105.773L804.006 98.9844C804.006 98.705 804.09 98.4536 804.258 98.2301C804.481 98.0625 804.733 97.9787 805.012 97.9787L842.39 97.9787L842.39 87.0001L804.593 87.0001ZM804.006 115.662L831.411 115.662L831.411 123.623C831.411 123.903 831.299 124.126 831.076 124.294C830.908 124.517 830.685 124.629 830.405 124.629L805.012 124.629C804.733 124.629 804.481 124.517 804.258 124.294C804.09 124.126 804.006 123.903 804.006 123.623L804.006 115.662Z" fill="#FF4A02" fill-opacity="0.12"/>
<g filter="url(#filter0_f_42_2)">
<rect x="18" y="117" width="919" height="53" fill="white"/>
</g>
<defs>
<filter id="filter0_f_42_2" x="0" y="99" width="955" height="89" filterUnits="userSpaceOnUse" color-interpolation-filters="sRGB">
<feFlood flood-opacity="0" result="BackgroundImageFix"/>
<feBlend mode="normal" in="SourceGraphic" in2="BackgroundImageFix" result="shape"/>
<feGaussianBlur stdDeviation="9" result="effect1_foregroundBlur_42_2"/>
</filter>
</defs>
</svg>
